<?xml version="1.0" encoding="UTF-8" standalone="no"?>
<svg
   xmlns:dc="http://purl.org/dc/elements/1.1/"
   xmlns:cc="http://creativecommons.org/ns#"
   xmlns:rdf="http://www.w3.org/1999/02/22-rdf-syntax-ns#"
   xmlns:svg="http://www.w3.org/2000/svg"
   xmlns="http://www.w3.org/2000/svg"
   xmlns:sodipodi="http://sodipodi.sourceforge.net/DTD/sodipodi-0.dtd"
   xmlns:inkscape="http://www.inkscape.org/namespaces/inkscape"
   width="85.986679mm"
   height="90.592873mm"
   viewBox="0 0 85.986679 90.592873"
   version="1.1"
   id="svg8"
   sodipodi:docname="socksfinder.svg"
   inkscape:version="1.0 (4035a4fb49, 2020-05-01)">
  <title
     id="title846">socksfinder logo</title>
  <defs
     id="defs2" />
  <sodipodi:namedview
     id="base"
     pagecolor="#ffffff"
     bordercolor="#666666"
     borderopacity="1.0"
     inkscape:pageopacity="0.0"
     inkscape:pageshadow="2"
     inkscape:zoom="0.87547783"
     inkscape:cx="233.28931"
     inkscape:cy="194.54929"
     inkscape:document-units="mm"
     inkscape:current-layer="layer1"
     inkscape:document-rotation="0"
     showgrid="false"
     inkscape:window-width="1918"
     inkscape:window-height="1058"
     inkscape:window-x="0"
     inkscape:window-y="20"
     inkscape:window-maximized="1"
     fit-margin-top="0"
     fit-margin-left="0"
     fit-margin-right="0"
     fit-margin-bottom="0" />
  <metadata
     id="metadata5">
    <rdf:RDF>
      <cc:Work
         rdf:about="">
        <dc:format>image/svg+xml</dc:format>
        <dc:type
           rdf:resource="http://purl.org/dc/dcmitype/StillImage" />
        <dc:title>socksfinder logo</dc:title>
        <dc:creator>
          <cc:Agent>
            <dc:title>Arkanosis</dc:title>
          </cc:Agent>
        </dc:creator>
        <dc:rights>
          <cc:Agent>
            <dc:title>CC-BY-SA 4.0</dc:title>
          </cc:Agent>
        </dc:rights>
        <dc:source>https://socksfinder.toolforge.org/</dc:source>
        <cc:license
           rdf:resource="http://creativecommons.org/licenses/by/4.0/" />
      </cc:Work>
      <cc:License
         rdf:about="http://creativecommons.org/licenses/by/4.0/">
        <cc:permits
           rdf:resource="http://creativecommons.org/ns#Reproduction" />
        <cc:permits
           rdf:resource="http://creativecommons.org/ns#Distribution" />
        <cc:requires
           rdf:resource="http://creativecommons.org/ns#Notice" />
        <cc:requires
           rdf:resource="http://creativecommons.org/ns#Attribution" />
        <cc:permits
           rdf:resource="http://creativecommons.org/ns#DerivativeWorks" />
      </cc:License>
    </rdf:RDF>
  </metadata>
  <g
     inkscape:label="Calque 1"
     inkscape:groupmode="layer"
     id="layer1"
     transform="translate(-110.36002,-36.331101)">
    <g
       id="g896"
       transform="matrix(1.4498866,0,0,1.4498866,-44.969475,-13.877965)">
      <circle
         style="fill:none;stroke:#00669a;stroke-width:5.54472;stroke-miterlimit:4;stroke-dasharray:none;stroke-opacity:1"
         id="path965"
         cx="138.74574"
         cy="65.409035"
         r="24.919861" />
    </g>
    <g
       transform="matrix(0.23690284,0.1178193,-0.1178193,0.23690284,123.81011,2.2836804)"
       id="g932">
      <path
         d="m 256.51034,63.54751 c 26.85169,-4.144268 26.10413,12.206409 28.06435,31.566236 -2.885,8.933004 -14.589,11.327004 -17.435,19.382004 -2.982,8.441 7.195,23.11 9.496,31.368 5.178,18.577 5.54,41.023 3.424,60.089 -1.983,17.869 -14.489,25.514 -26.309,36.585 -17.819,16.688 -28.447,35.832 -39.385,54.951 -13.113,22.919 -29.994,51.835 -64.605,56.51 -22.078,2.98 -50.194997,-23.64 -48.105,-44.53 2.958,-29.547 11.138,-39.965 25.687,-64.294 12.552,-20.992 19.127,-39.114 22.65,-63.749 1.949,-13.63 6.196,-25.901 6.149,-40.553 -0.082,-26.087 -6.638,-11.578 -19.303,-23.974 -12.75278,-32.735631 -11.58673,-42.165905 10.05453,-41.76492"
         id="path13"
         sodipodi:nodetypes="cccccccccccccc" />
      <path
         d="m 276.63683,88.337336 c 5.866,21.119004 -48.34614,21.886204 -63.99014,21.524204 -17.334,-0.4 -50.41736,0.91027 -67.22136,7.20927 -15.72584,-26.793924 -11.18963,-29.938815 -4.88943,-32.56028 13.887,-6.463 47.69575,-3.654902 63.64775,-5.026902 13.57,-1.173 63.38133,-20.357258 70.27133,-4.077258"
         fill="#ffffff"
         id="path21"
         sodipodi:nodetypes="cccccc" />
      <path
         d="m 259.19369,110.05375 c 1.722,13.463 5.608,25.668 9.029,36.739 5.081,16.448 -0.802,13.447 -16.423,20.394 -35.023,15.574 -22.503,52.382 -6.771,72.855 -25.285,15.938 -26.787,52.173 -48.571,70.987 -19.366,-25.025 -48.111,-36.57 -80.017,-35.184 9.315,-19.483 23.59,-34.527 33.314,-56.82 7.047,-16.156 9.286,-34.101 11.987,-50.75 0.854,-5.261 1.258,-14.452 1.868,-21.172 1.561,-17.195 -8.161,-24.479 11.052,-30.2 15.104,-4.497 32.907,0.452 48.26,-0.155 12.58,-0.51 23.7,-5.85 36.27,-6.71"
         fill="#ffffff"
         id="path47" />
      <path
         d="m 272.58369,174.19375 c 0.866,26.009 -1.692,45.02 -23.194,62.115 -9.992,-11.333 -23.475,-33.652 -11.909,-48.261 3.4,-4.29 37.58,-35.29 35.1,-13.85"
         fill="#ffffff"
         id="path51" />
      <path
         d="m 135.90169,281.92375 c 15.569,3.383 53.806,12.062 56.199,31.134 2.298,18.311 -39.711,36.155 -56.666,30.356 -26.817,-9.17 -41.489997,-76.89 0.467,-61.49"
         fill="#ffffff"
         id="path53" />
      <path
         style="fill:#9b0000;fill-opacity:1;stroke:none;stroke-width:0.520893"
         d="m 193.05802,306.40082 c -8.9771,-10.68159 -23.18042,-20.29592 -37.18439,-25.17038 -10.70716,-3.72692 -17.52205,-4.96487 -29.86486,-5.42508 l -9.24668,-0.34476 3.68534,-6.46928 c 2.02693,-3.55811 7.14934,-11.76216 11.38313,-18.23124 14.02334,-21.42717 19.08173,-31.37804 22.94564,-45.13866 3.59896,-12.81702 7.32019,-35.32988 8.61361,-52.11101 0.77525,-10.05813 0.77778,-11.63661 0.0296,-18.43386 -1.16524,-10.58608 -0.42291,-12.65971 5.58364,-15.59735 8.1001,-3.96153 17.25892,-4.86296 34.70326,-3.41559 16.06261,1.33273 24.52527,0.95375 34.42543,-1.54164 9.77684,-2.4643 16.86155,-3.92388 19.04632,-3.92388 1.60986,0 1.76613,0.14836 2.05753,1.95335 1.12572,6.97298 3.46072,16.60677 6.59668,27.21664 2.37971,8.0513 3.64865,13.26553 3.70744,15.23441 0.12993,4.35081 -1.13986,5.43268 -10.60481,9.03544 -4.13123,1.57252 -9.03698,3.69276 -10.90166,4.71164 -9.70416,5.30243 -15.74563,12.74301 -17.95402,22.11193 -0.91621,3.88695 -1.04402,12.47244 -0.25184,16.91762 1.53565,8.61706 6.11652,19.52362 11.66301,27.76835 1.61422,2.3995 2.8667,4.42282 2.78328,4.49625 -0.0834,0.0734 -1.95476,1.5597 -4.15854,3.30282 -7.60032,6.01162 -13.2182,14.55376 -22.37315,34.01907 -5.8711,12.48316 -7.8469,16.20549 -11.5124,21.68885 -3.13924,4.6961 -8.55391,11.0455 -9.41946,11.0455 -0.35378,0 -2.04222,-1.66461 -3.75209,-3.69914 z"
         id="path920" />
    </g>
    <g
       id="g940"
       transform="matrix(0.26458333,0,0,0.26458333,29.323199,26.089184)">
      <path
         sodipodi:nodetypes="cccccccccccccc"
         id="path13-3"
         d="m 597.36505,90.426894 c 26.85169,-4.144268 26.10413,12.206406 28.06435,31.566236 -2.885,8.933 -14.589,11.327 -17.435,19.382 -2.982,8.441 7.195,23.11 9.496,31.368 5.178,18.577 5.54,41.023 3.424,60.089 -1.983,17.869 -14.489,25.514 -26.309,36.585 -17.819,16.688 -28.447,35.832 -39.385,54.951 -13.11299,22.919 -29.99399,51.835 -64.60499,56.51 -22.078,2.98 -50.195,-23.64 -48.105,-44.53 2.958,-29.547 11.138,-39.965 25.687,-64.294 12.552,-20.992 19.127,-39.114 22.65,-63.749 1.949,-13.63 6.196,-25.901 6.149,-40.553 -0.082,-26.087 -6.638,-11.578 -19.303,-23.974 -12.75278,-32.73563 -11.58673,-42.1659 10.05453,-41.76492" />
      <path
         sodipodi:nodetypes="cccccc"
         id="path21-6"
         fill="#ffffff"
         d="m 617.49154,115.21672 c 5.866,21.119 -48.34614,21.8862 -63.99014,21.5242 -17.33399,-0.4 -50.41735,0.91027 -67.22135,7.20927 -15.72584,-26.79392 -11.18963,-29.93881 -4.88943,-32.56028 13.887,-6.463 47.69575,-3.6549 63.64774,-5.0269 13.57,-1.173 63.38133,-20.357256 70.27133,-4.07726" />
      <path
         id="path47-7"
         fill="#ffffff"
         d="m 600.0484,136.93313 c 1.722,13.463 5.608,25.668 9.029,36.739 5.081,16.448 -0.802,13.447 -16.423,20.394 -35.023,15.574 -22.503,52.382 -6.771,72.855 -25.285,15.938 -26.787,52.173 -48.57099,70.987 -19.366,-25.025 -48.111,-36.57 -80.017,-35.184 9.315,-19.483 23.59,-34.527 33.314,-56.82 7.047,-16.156 9.286,-34.101 11.987,-50.75 0.854,-5.261 1.258,-14.452 1.868,-21.172 1.561,-17.195 -8.161,-24.479 11.052,-30.2 15.104,-4.497 32.90699,0.452 48.25999,-0.155 12.58,-0.51 23.7,-5.85 36.27,-6.71" />
      <path
         id="path51-5"
         fill="#ffffff"
         d="m 613.4384,201.07313 c 0.866,26.009 -1.692,45.02 -23.194,62.115 -9.992,-11.333 -23.475,-33.652 -11.909,-48.261 3.4,-4.29 37.58,-35.29 35.1,-13.85" />
      <path
         id="path53-3"
         fill="#ffffff"
         d="m 476.75641,308.80313 c 15.569,3.383 53.806,12.062 56.199,31.134 2.298,18.311 -39.711,36.155 -56.666,30.356 -26.817,-9.17 -41.49,-76.89 0.467,-61.49" />
      <path
         style="fill:#2b9a67;fill-opacity:1;stroke:none;stroke-width:0.835211"
         d="m 531.38392,330.73046 c -16.73875,-17.69724 -36.87559,-26.65541 -63.7821,-28.37441 l -9.29669,-0.59394 4.03531,-7.0993 c 2.21942,-3.90462 7.91079,-13.06503 12.64748,-20.35648 16.98824,-26.15092 21.32621,-37.61719 26.69457,-70.55998 2.47927,-15.21396 3.74196,-34.29562 2.79409,-42.22394 -0.43437,-3.63322 -0.62334,-7.47644 -0.41994,-8.54048 0.55878,-2.92308 3.99737,-5.88451 9.24753,-7.96428 4.18523,-1.65792 6.22129,-1.86946 18.07975,-1.87841 7.34986,-0.006 19.00106,0.14332 25.89156,0.33082 11.92778,0.32456 13.06851,0.20917 23.80352,-2.40785 6.20145,-1.51182 12.9333,-2.80563 14.95968,-2.87515 l 3.68431,-0.1264 1.07839,6.28168 c 0.59311,3.45493 2.97486,12.85105 5.29277,20.88029 2.31791,8.02923 4.21502,15.76185 4.21582,17.18359 0.002,3.46442 -1.794,4.90225 -10.2884,8.23701 -15.56161,6.10924 -22.76758,11.70504 -27.0121,20.97629 -5.89948,12.88618 -2.97762,31.41377 7.61479,48.28553 l 4.40134,7.01052 -4.02513,3.00505 c -6.60826,4.93352 -12.01104,13.04097 -21.46557,32.21137 -9.21141,18.67746 -14.82085,27.9398 -19.52436,32.23873 l -2.78014,2.541 z"
         id="path922" />
    </g>
  </g>
</svg>
